HIERARCHY
ROOT SpineBase
{
  OFFSET 0.000000 0.000000 0.000000
  CHANNELS 6 Xposition Yposition Zposition Zrotation Xrotation Yrotation
  JOINT SpineMid
  {
    OFFSET -0.000000 29.339909 0.000000
    CHANNELS 3 Zrotation Xrotation Yrotation
    JOINT SpineShoulder
    {
      OFFSET -0.047947 21.852110 -0.661980
      CHANNELS 3 Zrotation Xrotation Yrotation
      JOINT Neck
      {
        OFFSET -0.039118 7.262080 -0.516470
        CHANNELS 3 Zrotation Xrotation Yrotation
        JOINT Head
        {
          OFFSET -2.609931 14.174454 -1.997978
          CHANNELS 3 Zrotation Xrotation Yrotation
          End Site
          {
            OFFSET 0 0 0
          }
        }
      }
      JOINT ShoulderLeft
      {
        OFFSET -15.568807 -3.526878 7.621511
        CHANNELS 3 Zrotation Xrotation Yrotation
        JOINT ElbowLeft
        {
          OFFSET -2.251513 -25.192952 0.624236
          CHANNELS 3 Zrotation Xrotation Yrotation
          JOINT WristLeft
          {
            OFFSET -1.048551 -20.098561 -6.214087
            CHANNELS 3 Zrotation Xrotation Yrotation
            JOINT HandLeft
            {
              OFFSET 0.762860 -5.070334 -0.781764
              CHANNELS 3 Zrotation Xrotation Yrotation
              JOINT HandTipLeft
              {
                OFFSET 0.699477 -6.489818 -2.160211
                CHANNELS 3 Zrotation Xrotation Yrotation
                End Site
                {
                  OFFSET 0 0 0
                }
              }
              JOINT ThumbLeft
              {
                OFFSET -4.273118 -0.626024 -0.925981
                CHANNELS 3 Zrotation Xrotation Yrotation
                End Site
                {
                  OFFSET 0 0 0
                }
              }
            }
          }
        }
      }
      JOINT ShoulderRight
      {
        OFFSET 13.695533 -1.992529 -7.673092
        CHANNELS 3 Zrotation Xrotation Yrotation
        JOINT ElbowRight
        {
          OFFSET 7.746727 -21.127753 -2.140929
          CHANNELS 3 Zrotation Xrotation Yrotation
          JOINT WristRight
          {
            OFFSET -1.876813 -18.493211 -5.434069
            CHANNELS 3 Zrotation Xrotation Yrotation
            JOINT HandRight
            {
              OFFSET -2.026004 -6.609249 -2.298954
              CHANNELS 3 Zrotation Xrotation Yrotation
              JOINT HandTipRight
              {
                OFFSET -2.481551 -6.969773 -0.170613
                CHANNELS 3 Zrotation Xrotation Yrotation
                End Site
                {
                  OFFSET 0 0 0
                }
              }
              JOINT ThumbRight
              {
                OFFSET -4.354047 0.220011 -1.382082
                CHANNELS 3 Zrotation Xrotation Yrotation
                End Site
                {
                  OFFSET 0 0 0
                }
              }
            }
          }
        }
      }
    }
  }
  JOINT HipLeft
  {
    OFFSET -6.575203 0.628040 -0.929565
    CHANNELS 3 Zrotation Xrotation Yrotation
    JOINT KneeLeft
    {
      OFFSET 1.901208 -26.770331 1.083088
      CHANNELS 3 Zrotation Xrotation Yrotation
      JOINT AnkleLeft
      {
        OFFSET 8.722081 -39.904003 11.228203
        CHANNELS 3 Zrotation Xrotation Yrotation
        JOINT FootLeft
        {
          OFFSET -0.555673 -5.679090 -6.863980
          CHANNELS 3 Zrotation Xrotation Yrotation
          End Site
          {
            OFFSET 0 0 0
          }
        }
      }
    }
  }
  JOINT HipRight
  {
    OFFSET 6.079386 1.756954 -5.505832
    CHANNELS 3 Zrotation Xrotation Yrotation
    JOINT KneeRight
    {
      OFFSET 4.322605 -25.026090 -4.371614
      CHANNELS 3 Zrotation Xrotation Yrotation
      JOINT AnkleRight
      {
        OFFSET 3.693852 -36.857052 5.932739
        CHANNELS 3 Zrotation Xrotation Yrotation
        JOINT FootRight
        {
          OFFSET -4.680456 -2.104771 -12.025707
          CHANNELS 3 Zrotation Xrotation Yrotation
          End Site
          {
            OFFSET 0 0 0
          }
        }
      }
    }
  }
}
MOTION
Frames: 8
Frame Time: 0.033333
23.566267 72.543868 302.618253 0.000000 0.000000 19.881463 -0.000000 0.000000 -19.881463 -0.000000 0.000000 0.000000 -0.000000 0.000000 0.000000 0.000000 0.000000 0.000000 -0.000000 0.000000 0.000000 -0.000000 0.000000 0.000000 -0.000000 0.000000 0.000000 -0.000000 0.000000 0.000000 0.000000 0.000000 0.000000 0.000000 0.000000 0.000000 -0.000000 0.000000 0.000000 -0.000000 0.000000 0.000000 -0.000000 0.000000 0.000000 -0.000000 0.000000 0.000000 0.000000 0.000000 0.000000 0.000000 0.000000 0.000000 -0.000000 0.000000 -19.881463 -0.000000 0.000000 0.000000 -0.000000 0.000000 0.000000 0.000000 0.000000 0.000000 -0.000000 0.000000 -19.881463 -0.000000 0.000000 0.000000 -0.000000 0.000000 0.000000 0.000000 0.000000 0.000000
23.603898 72.552580 302.601343 0.112192 0.127670 19.940062 -0.149006 -0.081754 -19.940293 -0.000000 0.000000 0.000000 -0.000000 0.000000 0.000000 0.000000 0.000000 0.000000 -0.000000 0.000000 0.000000 -0.000000 0.000000 0.000000 -0.620455 1.595660 0.343938 2.013073 -1.467030 -0.739688 0.000000 0.000000 0.000000 0.000000 0.000000 0.000000 -1.228571 0.645051 0.369172 -1.072033 -0.157988 0.253477 2.031486 -2.769906 0.160511 -2.327848 9.875213 -3.124352 0.000000 0.000000 0.000000 0.000000 0.000000 0.000000 -0.149006 -0.081754 -19.940293 -0.000000 0.000000 0.000000 -2.599784 4.806546 2.640978 0.000000 0.000000 0.000000 -1.295168 -1.114634 -20.061192 0.722565 1.363212 0.100335 3.246762 -8.444018 0.961918 0.000000 0.000000 0.000000
23.601268 72.565010 302.591373 0.178916 0.230867 20.054478 -0.247236 -0.155515 -20.055174 -0.000000 0.000000 0.000000 -0.000000 0.000000 0.000000 0.000000 0.000000 0.000000 -0.000000 0.000000 0.000000 -0.000000 0.000000 0.000000 -1.013756 2.902403 0.617172 3.536848 -2.677844 -1.259879 0.000000 0.000000 0.000000 0.000000 0.000000 0.000000 -2.002086 1.433114 0.757316 -1.880358 0.142936 0.225543 2.709487 -3.632162 0.039298 -3.457889 15.603684 -4.964223 0.000000 0.000000 0.000000 0.000000 0.000000 0.000000 -0.247236 -0.155515 -20.055174 -0.000000 0.000000 0.000000 -4.522926 7.828004 4.610169 0.000000 0.000000 0.000000 -2.200649 -1.945368 -20.285051 1.212982 2.355273 0.169123 6.896006 -17.147802 2.634570 0.000000 0.000000 0.000000
23.558376 72.581158 302.588343 0.200141 0.309574 20.224706 -0.294824 -0.221295 -20.225816 -0.000000 0.000000 0.000000 0.877469 0.578866 0.225684 0.000000 0.000000 0.000000 -0.000000 0.000000 0.000000 -0.000000 0.000000 0.000000 -1.184291 3.940015 0.813311 4.564223 -3.636314 -1.602460 0.000000 0.000000 0.000000 0.000000 0.000000 0.000000 -2.372365 2.381863 1.169595 -2.700157 0.844842 0.018903 2.409208 -2.717477 -0.400119 -3.907074 18.187382 -6.115758 0.000000 0.000000 0.000000 0.000000 0.000000 0.000000 -0.294824 -0.221295 -20.225816 -0.000000 0.000000 0.000000 -5.707646 9.299257 5.847925 0.000000 0.000000 0.000000 -2.790027 -2.554875 -20.547725 2.463407 3.269033 0.341128 9.668380 -25.215588 4.785760 0.000000 0.000000 0.000000
23.475224 72.601023 302.592255 0.175834 0.363773 20.451067 -0.291859 -0.279405 -20.452337 -0.000000 0.000000 0.000000 1.296048 0.701983 0.303640 0.000000 0.000000 0.000000 -0.000000 0.000000 0.000000 -0.000000 0.000000 0.000000 -1.133963 4.723704 0.928186 5.085669 -4.348070 -1.798902 0.000000 0.000000 0.000000 0.000000 0.000000 0.000000 -2.365144 3.517362 1.609485 -3.662008 1.991599 -0.332569 1.324295 -0.058769 -1.150398 -3.912071 18.181993 -6.856850 0.000000 0.000000 0.000000 0.000000 0.000000 0.000000 -0.291859 -0.279405 -20.452337 -0.000000 0.000000 0.000000 -6.131812 9.364728 6.335130 0.000000 0.000000 0.000000 -3.107667 -2.983989 -20.847638 2.895262 3.814494 0.410022 12.761330 -31.261911 7.283863 0.000000 0.000000 0.000000
23.351810 72.624606 302.603107 0.105963 0.393448 20.734204 -0.238397 -0.330449 -20.735255 -0.000000 0.000000 0.000000 1.777755 0.790466 0.383168 0.000000 0.000000 0.000000 -0.000000 0.000000 0.000000 -0.203270 0.883687 0.018266 -0.656556 4.380248 0.930810 5.090135 -4.818690 -1.870380 0.000000 0.000000 0.000000 0.000000 0.000000 0.000000 -1.983662 4.875670 2.078288 -4.838423 3.713784 -0.828312 -0.377849 4.268117 -2.171095 -3.658090 16.014025 -7.374915 0.000000 0.000000 0.000000 0.000000 0.000000 0.000000 0.065399 0.578100 -20.669422 0.443213 -1.788960 -0.123262 -6.217132 8.860784 6.221915 0.000000 0.000000 0.000000 -3.178009 -3.259298 -21.185036 3.154442 4.155512 0.471784 14.876856 -34.868345 9.413575 0.000000 0.000000 0.000000
23.155117 72.658734 302.624280 -0.047121 0.403915 21.071113 -0.101249 -0.393848 -21.071295 -0.000000 0.000000 0.000000 2.375872 0.824760 0.468388 0.000000 0.000000 0.000000 -0.000000 0.000000 0.000000 -0.208141 0.928192 0.017568 0.603233 4.014447 0.653677 3.189134 -2.605631 -1.395902 0.000000 0.000000 0.000000 0.000000 0.000000 0.000000 0.093996 8.385457 3.039494 -7.630364 4.988216 -2.339789 -3.586814 1.923137 -1.680276 -2.609692 21.299276 -9.491018 0.000000 0.000000 0.000000 0.000000 0.000000 0.000000 0.505614 0.937423 -20.966854 0.411784 -2.468244 -0.169407 -2.672770 3.153037 2.506378 0.000000 0.000000 0.000000 -3.057893 -3.611593 -21.601809 3.269120 4.704262 0.576183 16.561995 -37.485812 11.614163 0.000000 0.000000 0.000000
22.936928 72.696493 302.656725 -0.230457 0.392707 21.381109 0.071431 -0.449695 -21.380039 -0.000000 0.000000 0.000000 2.983400 0.720230 0.532400 0.000000 0.000000 0.000000 -0.000000 0.000000 0.000000 -0.203218 0.937325 0.015551 2.071269 4.584376 0.466897 0.911511 -3.944115 -1.156732 0.000000 0.000000 0.000000 0.000000 0.000000 0.000000 0.739989 9.671814 3.379170 -8.904828 7.134170 -2.856553 -5.448743 17.165439 -4.344490 -3.866824 7.672812 -8.930946 0.000000 0.000000 0.000000 0.000000 0.000000 0.000000 1.049695 1.500618 -21.226501 0.369392 -3.366902 -0.236405 2.129960 -12.456668 -1.822431 0.000000 0.000000 0.000000 -2.682557 -3.678212 -21.934339 3.203345 4.810759 0.640657 13.399532 -33.195902 10.104452 0.000000 0.000000 0.000000
